<?xml version="1.0" encoding="UTF-8" standalone="no"?>
<svg
   xmlns:dc="http://purl.org/dc/elements/1.1/"
   xmlns:cc="http://creativecommons.org/ns#"
   xmlns:rdf="http://www.w3.org/1999/02/22-rdf-syntax-ns#"
   xmlns:svg="http://www.w3.org/2000/svg"
   xmlns="http://www.w3.org/2000/svg"
   xmlns:sodipodi="http://sodipodi.sourceforge.net/DTD/sodipodi-0.dtd"
   xmlns:inkscape="http://www.inkscape.org/namespaces/inkscape"
   viewBox="0 0 700 700"
   version="1.1"
   id="svg24"
   sodipodi:docname="cpanel-logo.svg"
   width="700"
   height="700"
   inkscape:export-filename="G:\Users\suitedoalex\sites\cpanel-logo-0.png"
   inkscape:export-xdpi="561.73712"
   inkscape:export-ydpi="561.73712"
   inkscape:version="0.92.4 (5da689c313, 2019-01-14)">
  <metadata
     id="metadata28">
    <rdf:RDF>
      <cc:Work
         rdf:about="">
        <dc:format>image/svg+xml</dc:format>
        <dc:type
           rdf:resource="http://purl.org/dc/dcmitype/StillImage" />
        <dc:title>cPanelAsset 14@1x</dc:title>
      </cc:Work>
    </rdf:RDF>
  </metadata>
  <sodipodi:namedview
     pagecolor="#ffffff"
     bordercolor="#666666"
     borderopacity="1"
     objecttolerance="10"
     gridtolerance="10"
     guidetolerance="10"
     inkscape:pageopacity="0"
     inkscape:pageshadow="2"
     inkscape:window-width="1600"
     inkscape:window-height="837"
     id="namedview26"
     showgrid="false"
     inkscape:zoom="0.41575479"
     inkscape:cx="57.348206"
     inkscape:cy="327.08146"
     inkscape:window-x="-8"
     inkscape:window-y="-8"
     inkscape:window-maximized="1"
     inkscape:current-layer="svg24" />
  <defs
     id="defs4">
    <style
       id="style2">.cls-1{fill:#fff;}</style>
  </defs>
  <title
     id="title6">cPanelAsset 14@1x</title>
  <g
     id="Layer_2"
     data-name="Layer 2"
     style="fill:#ff6a1a;fill-opacity:1"
     transform="matrix(0.49227844,0,0,0.49227844,70.355208,290.92675)"
     inkscape:export-filename="G:\Users\suitedoalex\sites\cpanel-logo-4.png"
     inkscape:export-xdpi="68.659119"
     inkscape:export-ydpi="68.659119">
    <g
       id="Layer_1-2"
       data-name="Layer 1"
       style="fill:#ff6a1a;fill-opacity:1">
      <path
         class="cls-1"
         d="m 89.69,59.1 h 67.8 L 147,99.3 a 25.38,25.38 0 0 1 -9,13.5 24.32,24.32 0 0 1 -15.3,5.1 H 91.19 a 30.53,30.53 0 0 0 -19,6.3 33,33 0 0 0 -11.55,17.1 31.91,31.91 0 0 0 -0.45,15.3 33.1,33.1 0 0 0 5.81,12.75 30.29,30.29 0 0 0 10.8,8.85 31.74,31.74 0 0 0 14.4,3.3 h 19.2 a 10.8,10.8 0 0 1 8.85,4.35 10.4,10.4 0 0 1 2,9.75 l -12,44.4 h -21 A 84.77,84.77 0 0 1 48.5,230.55 89.78,89.78 0 0 1 18.29,205.5 88.4,88.4 0 0 1 1.94,170 87.51,87.51 0 0 1 3,129 l 1.2,-4.5 a 88.69,88.69 0 0 1 31.64,-47.25 89.91,89.91 0 0 1 25,-13.35 87,87 0 0 1 28.85,-4.8 z"
         id="path8"
         style="fill:#ff6a1a;fill-opacity:1"
         inkscape:connector-curvature="0" />
      <path
         class="cls-1"
         d="M 123.89,240 183,18.6 A 25.38,25.38 0 0 1 192,5.1 24.32,24.32 0 0 1 207.29,0 H 270 a 84.77,84.77 0 0 1 39.75,9.45 89.21,89.21 0 0 1 46.65,60.6 83.8,83.8 0 0 1 -1.2,41 l -1.2,4.5 a 89.88,89.88 0 0 1 -12,26.55 87.65,87.65 0 0 1 -73.2,39.15 h -54.3 l 10.8,-40.5 a 25.38,25.38 0 0 1 9,-13.2 24.32,24.32 0 0 1 15.3,-5.1 H 267 A 31.56,31.56 0 0 0 297.6,98.75 29.39,29.39 0 0 0 298,84 33.1,33.1 0 0 0 292.15,71.25 31.76,31.76 0 0 0 281.35,62.25 30.61,30.61 0 0 0 267,58.8 h -33.6 l -43.8,162.9 a 25.38,25.38 0 0 1 -9,13.2 23.88,23.88 0 0 1 -15,5.1 z"
         id="path10"
         style="fill:#ff6a1a;fill-opacity:1"
         inkscape:connector-curvature="0" />
      <path
         class="cls-1"
         d="m 498,121.8 0.9,-3.3 a 4.41,4.41 0 0 0 -0.75,-4 4.58,4.58 0 0 0 -3.75,-1.65 h -97.5 a 24,24 0 0 1 -11.4,-2.7 24.94,24.94 0 0 1 -8.4,-7 24.6,24.6 0 0 1 -4.5,-10 25.5,25.5 0 0 1 0.3,-11.7 l 6,-22.8 h 132 a 47.39,47.39 0 0 1 22.5,5.4 51.93,51.93 0 0 1 17,14.1 50.34,50.34 0 0 1 9.3,20 49.79,49.79 0 0 1 -0.45,23.25 l -23.7,88.2 a 40.62,40.62 0 0 1 -39.6,30.3 l -97.5,-0.3 A 51.59,51.59 0 0 1 357,219.15 54.4,54.4 0 0 1 347.4,198.15 49.48,49.48 0 0 1 348,174 l 1.2,-4.5 a 47.58,47.58 0 0 1 7.05,-15.6 54,54 0 0 1 11.55,-12.3 52.06,52.06 0 0 1 14.7,-7.95 51.14,51.14 0 0 1 17.1,-2.85 h 81.9 l -6,22.5 a 25.49,25.49 0 0 1 -9,13.2 23.92,23.92 0 0 1 -15,5.1 h -36.6 q -5.11,0 -6.6,5.1 a 6.13,6.13 0 0 0 1.2,5.85 6.65,6.65 0 0 0 5.4,2.55 H 474 a 9.27,9.27 0 0 0 5.7,-1.8 7.76,7.76 0 0 0 3,-4.8 l 0.6,-2.4 z"
         id="path12"
         style="fill:#ff6a1a;fill-opacity:1"
         inkscape:connector-curvature="0" />
      <path
         class="cls-1"
         d="m 672.59,59.1 a 85.39,85.39 0 0 1 40,9.45 89.82,89.82 0 0 1 30.16,25 88.39,88.39 0 0 1 16.34,35.7 85.78,85.78 0 0 1 -1.34,41.1 l -15,56.4 a 16.53,16.53 0 0 1 -6.45,9.6 18.22,18.22 0 0 1 -11,3.6 H 693 a 11,11 0 0 1 -10.81,-14.1 l 18,-68.1 a 29.39,29.39 0 0 0 0.45,-14.7 33.23,33.23 0 0 0 -5.84,-12.75 32,32 0 0 0 -10.8,-9 30.67,30.67 0 0 0 -14.4,-3.45 H 636 L 606.88,226.8 a 16.4,16.4 0 0 1 -6.45,9.6 18.65,18.65 0 0 1 -11.25,3.6 h -32.1 a 10.78,10.78 0 0 1 -8.84,-4.35 10.43,10.43 0 0 1 -2,-9.75 l 44.4,-166.8 z"
         id="path14"
         style="fill:#ff6a1a;fill-opacity:1"
         inkscape:connector-curvature="0" />
      <path
         class="cls-1"
         d="m 849.28,116.25 a 15.34,15.34 0 0 0 -5.1,7.35 l -13.5,51 a 9,9 0 0 0 8.7,11.4 h 124.2 L 954,221.7 a 25.38,25.38 0 0 1 -9,13.2 23.88,23.88 0 0 1 -15,5.1 H 816.88 a 48.43,48.43 0 0 1 -22.5,-5.25 49.48,49.48 0 0 1 -17,-14.1 51.48,51.48 0 0 1 -9.3,-20.1 46,46 0 0 1 0.75,-23 l 18.3,-68.1 a 67.5,67.5 0 0 1 9.3,-20.4 67.3,67.3 0 0 1 34,-26.25 65.91,65.91 0 0 1 22.05,-3.75 h 80.1 a 47.34,47.34 0 0 1 22.5,5.4 51.83,51.83 0 0 1 17,14.1 48.65,48.65 0 0 1 9.15,20.1 50.2,50.2 0 0 1 -0.6,23.1 l -5.4,20.4 A 39.05,39.05 0 0 1 960.73,164 40.08,40.08 0 0 1 936,172.2 h -90.6 l 6,-22.2 a 23.78,23.78 0 0 1 8.7,-13.2 24.32,24.32 0 0 1 15.3,-5.1 H 912 q 5.1,0 6.6,-5.1 l 1.2,-4.5 a 6.92,6.92 0 0 0 -6.6,-8.7 h -55.8 a 12.71,12.71 0 0 0 -8.12,2.85 z"
         id="path16"
         style="fill:#ff6a1a;fill-opacity:1"
         inkscape:connector-curvature="0" />
      <path
         class="cls-1"
         d="m 963.28,240 60.3,-226.5 A 17.06,17.06 0 0 1 1030,3.75 18.14,18.14 0 0 1 1041.28,0 h 32.1 a 11.11,11.11 0 0 1 9.15,4.35 10.43,10.43 0 0 1 2,9.75 l -45,167.1 a 74.52,74.52 0 0 1 -10.65,24 78.66,78.66 0 0 1 -17.4,18.45 81.65,81.65 0 0 1 -22.35,12 76.85,76.85 0 0 1 -25.85,4.35 z"
         id="path18"
         style="fill:#ff6a1a;fill-opacity:1"
         inkscape:connector-curvature="0" />
      <path
         class="cls-1"
         d="m 1094.83,21.06 a 20.4,20.4 0 0 1 2.75,-10.29 20.6,20.6 0 0 1 17.9,-10.35 20.39,20.39 0 0 1 10.29,2.74 20.13,20.13 0 0 1 7.58,7.55 20.73,20.73 0 0 1 0.11,20.51 20.67,20.67 0 0 1 -36,0 20.37,20.37 0 0 1 -2.63,-10.16 z m 2.88,0 a 17.76,17.76 0 0 0 8.91,15.39 17.67,17.67 0 0 0 17.73,0 17.89,17.89 0 0 0 6.49,-6.47 17.21,17.21 0 0 0 2.4,-8.91 17.18,17.18 0 0 0 -2.39,-8.86 17.89,17.89 0 0 0 -6.46,-6.5 17.7,17.7 0 0 0 -17.78,0 17.87,17.87 0 0 0 -6.49,6.46 17.17,17.17 0 0 0 -2.41,8.89 z m 26.14,-5 a 6.64,6.64 0 0 1 -1.17,3.88 6.79,6.79 0 0 1 -3.28,2.51 l 6.54,10.85 h -4.61 l -5.69,-9.72 h -3.7 v 9.72 h -4.07 V 8.85 h 7.13 c 3,0 5.26,0.59 6.68,1.78 a 6.69,6.69 0 0 1 2.17,5.44 z m -11.91,4.14 h 3 a 5.24,5.24 0 0 0 3.53,-1.14 3.63,3.63 0 0 0 1.33,-2.89 3.44,3.44 0 0 0 -1.18,-2.95 6.19,6.19 0 0 0 -3.73,-0.9 h -2.91 z"
         id="path20"
         style="fill:#ff6a1a;fill-opacity:1"
         inkscape:connector-curvature="0" />
    </g>
  </g>
</svg>
